<svg width="25" height="27" viewBox="0 0 25 27" fill="none" xmlns="http://www.w3.org/2000/svg">
<path d="M23.9583 14.6017H1.04167C0.466665 14.6017 0 14.0977 0 13.4767C0 12.8557 0.466665 12.3517 1.04167 12.3517H23.9583C24.5333 12.3517 25 12.8557 25 13.4767C25 14.0977 24.5333 14.6017 23.9583 14.6017Z" fill="white"/>
<path d="M23.9583 5.97656H1.04167C0.466665 5.97656 0 5.47257 0 4.85156C0 4.23056 0.466665 3.72656 1.04167 3.72656H23.9583C24.5333 3.72656 25 4.23056 25 4.85156C25 5.47257 24.5333 5.97656 23.9583 5.97656Z" fill="white"/>
<path d="M23.9583 23.2264H1.04167C0.466665 23.2264 0 22.7224 0 22.1014C0 21.4804 0.466665 20.9764 1.04167 20.9764H23.9583C24.5333 20.9764 25 21.4804 25 22.1014C25 22.7224 24.5333 23.2264 23.9583 23.2264Z" fill="white"/>
</svg>
