<svg width="19" height="20" viewBox="0 0 19 20" fill="none" xmlns="http://www.w3.org/2000/svg">
<path d="M15.9695 4.72269L3.65404 16.8761C3.34503 17.181 2.82674 17.1645 2.49714 16.8393C2.16753 16.514 2.15081 16.0025 2.45982 15.6976L14.7753 3.54417C15.0843 3.23923 15.6026 3.25573 15.9322 3.581C16.2618 3.90627 16.2785 4.41774 15.9695 4.72269Z" fill="white"/>
<path d="M14.7752 17.0093L2.45981 4.85594C2.1508 4.551 2.16752 4.03953 2.49713 3.71426C2.82673 3.38899 3.34502 3.37249 3.65403 3.67743L15.9695 15.8308C16.2785 16.1358 16.2618 16.6472 15.9322 16.9725C15.6025 17.2978 15.0843 17.3143 14.7752 17.0093Z" fill="white"/>
</svg>
